<svg width="33" height="29" viewBox="0 0 33 29" fill="none" xmlns="http://www.w3.org/2000/svg">
<g clip-path="url(#clip0_113_146)">
<path d="M30.6799 12.6097C31.2353 12.6097 31.7095 12.8062 32.1024 13.1991C32.4954 13.5921 32.6919 14.0663 32.6919 14.6217C32.6919 15.1771 32.4954 15.6512 32.1024 16.0442C31.7095 16.4372 31.2353 16.6337 30.6799 16.6337H30.4441L28.6365 27.0394C28.5526 27.5215 28.3221 27.9197 27.9448 28.2341C27.5676 28.5484 27.138 28.7056 26.6559 28.7056H6.53598C6.05394 28.7056 5.6243 28.5484 5.24705 28.2341C4.8698 27.9197 4.63926 27.5215 4.55542 27.0394L2.74777 16.6337H2.51199C1.9566 16.6337 1.48242 16.4372 1.08945 16.0442C0.696484 15.6512 0.5 15.1771 0.5 14.6217C0.5 14.0663 0.696484 13.5921 1.08945 13.1991C1.48242 12.8062 1.9566 12.6097 2.51199 12.6097H30.6799ZM8.12357 25.1846C8.39603 25.1637 8.62395 25.0458 8.80733 24.831C8.99072 24.6161 9.07193 24.3725 9.05097 24.1L8.54797 17.5611C8.52702 17.2886 8.40913 17.0607 8.1943 16.8773C7.97948 16.6939 7.73584 16.6127 7.46338 16.6337C7.19093 16.6546 6.96301 16.7725 6.77962 16.9873C6.59624 17.2022 6.51502 17.4458 6.53598 17.7183L7.03898 24.2572C7.05994 24.5192 7.16735 24.7393 7.36121 24.9174C7.55508 25.0956 7.783 25.1846 8.04498 25.1846H8.12357ZM14.584 24.1786V17.6397C14.584 17.3672 14.4844 17.1314 14.2853 16.9323C14.0862 16.7332 13.8504 16.6337 13.578 16.6337C13.3055 16.6337 13.0697 16.7332 12.8706 16.9323C12.6715 17.1314 12.572 17.3672 12.572 17.6397V24.1786C12.572 24.4511 12.6715 24.6869 12.8706 24.886C13.0697 25.0851 13.3055 25.1846 13.578 25.1846C13.8504 25.1846 14.0862 25.0851 14.2853 24.886C14.4844 24.6869 14.584 24.4511 14.584 24.1786ZM20.6199 24.1786V17.6397C20.6199 17.3672 20.5204 17.1314 20.3213 16.9323C20.1222 16.7332 19.8864 16.6337 19.6139 16.6337C19.3415 16.6337 19.1057 16.7332 18.9066 16.9323C18.7075 17.1314 18.6079 17.3672 18.6079 17.6397V24.1786C18.6079 24.4511 18.7075 24.6869 18.9066 24.886C19.1057 25.0851 19.3415 25.1846 19.6139 25.1846C19.8864 25.1846 20.1222 25.0851 20.3213 24.886C20.5204 24.6869 20.6199 24.4511 20.6199 24.1786ZM26.1529 24.2572L26.6559 17.7183C26.6769 17.4458 26.5957 17.2022 26.4123 16.9873C26.2289 16.7725 26.001 16.6546 25.7285 16.6337C25.4561 16.6127 25.2124 16.6939 24.9976 16.8773C24.7828 17.0607 24.6649 17.2886 24.6439 17.5611L24.1409 24.1C24.12 24.3725 24.2012 24.6161 24.3846 24.831C24.5679 25.0458 24.7959 25.1637 25.0683 25.1846H25.1469C25.4089 25.1846 25.6368 25.0956 25.8307 24.9174C26.0245 24.7393 26.132 24.5192 26.1529 24.2572ZM7.9821 5.12758L6.52026 11.6037H4.44539L6.03298 4.67174C6.23209 3.74957 6.69841 2.9977 7.43195 2.4161C8.16549 1.83451 9.00382 1.54372 9.94694 1.54372H12.572C12.572 1.27126 12.6715 1.03548 12.8706 0.836375C13.0697 0.637271 13.3055 0.53772 13.578 0.53772H19.6139C19.8864 0.53772 20.1222 0.637271 20.3213 0.836375C20.5204 1.03548 20.6199 1.27126 20.6199 1.54372H23.245C24.1881 1.54372 25.0264 1.83451 25.7599 2.4161C26.4935 2.9977 26.9598 3.74957 27.1589 4.67174L28.7465 11.6037H26.6716L25.2098 5.12758C25.0945 4.6665 24.8561 4.28925 24.4946 3.99583C24.1331 3.70242 23.7165 3.55571 23.245 3.55571H20.6199C20.6199 3.82817 20.5204 4.06395 20.3213 4.26305C20.1222 4.46215 19.8864 4.56171 19.6139 4.56171H13.578C13.3055 4.56171 13.0697 4.46215 12.8706 4.26305C12.6715 4.06395 12.572 3.82817 12.572 3.55571H9.94694C9.47538 3.55571 9.05883 3.70242 8.6973 3.99583C8.33577 4.28925 8.09737 4.6665 7.9821 5.12758Z" fill="white"/>
</g>
<defs>
<clipPath id="clip0_113_146">
<rect width="32.1919" height="28.1679" fill="white" transform="translate(0.5 0.53772)"/>
</clipPath>
</defs>
</svg>
