<svg width="36" height="35" viewBox="0 0 36 35" fill="none" xmlns="http://www.w3.org/2000/svg">
<path fill-rule="evenodd" clip-rule="evenodd" d="M11.4486 24.7429C16.3272 24.0302 19.6862 24.0915 24.5712 24.7679C24.925 24.8191 25.2482 24.9967 25.4813 25.2678C25.7143 25.5388 25.8414 25.885 25.8391 26.2425C25.8391 26.5846 25.7215 26.9167 25.5091 27.1761C25.1389 27.6285 24.7597 28.0733 24.3716 28.5103H26.2539C26.3722 28.3692 26.4912 28.2253 26.6117 28.0792C27.0345 27.5607 27.2651 26.9121 27.2645 26.2432C27.2645 24.7999 26.2111 23.5562 24.7665 23.3567C19.766 22.6646 16.2709 22.5984 11.2427 23.3332C9.78301 23.5463 8.73389 24.8092 8.73389 26.2624C8.73389 26.9074 8.94414 27.5453 9.34255 28.062C9.46015 28.2146 9.57632 28.3642 9.69178 28.5111H11.5285C11.1674 28.0788 10.8153 27.6392 10.4722 27.1925C10.2683 26.9251 10.1584 26.598 10.1593 26.2617C10.1593 25.4941 10.711 24.8505 11.4486 24.7429ZM17.9992 17.8196C18.5608 17.8196 19.1169 17.709 19.6357 17.4941C20.1545 17.2792 20.6259 16.9642 21.023 16.5671C21.4201 16.17 21.7351 15.6986 21.95 15.1797C22.1649 14.6609 22.2755 14.1049 22.2755 13.5433C22.2755 12.9817 22.1649 12.4256 21.95 11.9068C21.7351 11.388 21.4201 10.9166 21.023 10.5195C20.6259 10.1224 20.1545 9.80739 19.6357 9.59249C19.1169 9.37758 18.5608 9.26697 17.9992 9.26697C16.8651 9.26697 15.7774 9.71751 14.9754 10.5195C14.1734 11.3214 13.7229 12.4091 13.7229 13.5433C13.7229 14.6774 14.1734 15.7651 14.9754 16.5671C15.7774 17.369 16.8651 17.8196 17.9992 17.8196ZM17.9992 19.245C19.5114 19.245 20.9617 18.6443 22.031 17.575C23.1002 16.5057 23.701 15.0555 23.701 13.5433C23.701 12.0311 23.1002 10.5808 22.031 9.51154C20.9617 8.44225 19.5114 7.84154 17.9992 7.84154C16.487 7.84154 15.0368 8.44225 13.9675 9.51154C12.8982 10.5808 12.2975 12.0311 12.2975 13.5433C12.2975 15.0555 12.8982 16.5057 13.9675 17.575C15.0368 18.6443 16.487 19.245 17.9992 19.245Z" fill="white"/>
<path fill-rule="evenodd" clip-rule="evenodd" d="M17.999 29.9357C25.0841 29.9357 30.8279 24.192 30.8279 17.1068C30.8279 10.0217 25.0841 4.27791 17.999 4.27791C10.9139 4.27791 5.17006 10.0217 5.17006 17.1068C5.17006 24.192 10.9139 29.9357 17.999 29.9357ZM17.999 31.3612C25.8717 31.3612 32.2533 24.9795 32.2533 17.1068C32.2533 9.23415 25.8717 2.85248 17.999 2.85248C10.1263 2.85248 3.74463 9.23415 3.74463 17.1068C3.74463 24.9795 10.1263 31.3612 17.999 31.3612Z" fill="white"/>
</svg>
